<?xml version="1.0" encoding="utf-8"?>
<!-- Generator: Adobe Illustrator 27.4.0, SVG Export Plug-In . SVG Version: 6.00 Build 0)  -->
<svg version="1.1" id="Calque_1" xmlns="http://www.w3.org/2000/svg" xmlns:xlink="http://www.w3.org/1999/xlink" x="0px" y="0px"
	 viewBox="0 0 240 40" style="enable-background:new 0 0 240 40;" xml:space="preserve">
<style type="text/css">
	.st0{fill:url(#SVGID_1_);}
</style>
<g>
	<linearGradient id="SVGID_1_" gradientUnits="userSpaceOnUse" x1="4.6012" y1="20.4797" x2="234.8541" y2="20.4797">
		<stop  offset="0.0932" style="stop-color:#775829"/>
		<stop  offset="0.382" style="stop-color:#A38958"/>
		<stop  offset="0.5618" style="stop-color:#E4D3B6"/>
		<stop  offset="0.8023" style="stop-color:#94775A"/>
		<stop  offset="0.8034" style="stop-color:#94775A"/>
		<stop  offset="0.9551" style="stop-color:#6E4921"/>
	</linearGradient>
	<path class="st0" d="M12.94,11.72L4.6,29.24h2.29l2.75-6h8.41l2.85,6h2.29L15,11.72H12.94z M10.67,21.18l3.3-6.96l3.18,6.96H10.67z
		 M25.09,19.2h4.67v10.04h2.06V19.2h4.62v-2.06H25.09V19.2z M43.15,24.03h4.72v-2.05h-4.72V19.2h8.6v-2.06H41.09v12.1h10.89v-2.05
		h-8.83V24.03z M59.01,17.14h-2.05v12.1h9.44v-2.05h-7.38V17.14z M70.83,29.24h2.05v-12.1h-2.05V29.24z M81.65,24.03h4.71v-2.05
		h-4.71V19.2h8.59v-2.06H79.59v12.1h10.88v-2.05h-8.83V24.03z M107.65,20.62c0-2.66-2.17-3.48-4.6-3.48h-7.48v12.1h2.06v-4.95h4.25
		l3.48,4.95h2.57l-3.53-4.99C105.83,24.01,107.65,23.31,107.65,20.62z M97.63,22.23V19.2h5.51c1.57,0,2.45,0.12,2.45,1.47
		c0,1.19-0.98,1.56-2.33,1.56H97.63z M129.79,11.72h-8.59v17.51h8.59c6.4,0,8.08-5.62,8.08-8.76S135.78,11.72,129.79,11.72z
		 M129.79,27.18h-6.54V13.78h6.54c3.99,0,6.03,3.85,6.03,6.7C135.82,23.28,133.79,27.18,129.79,27.18z M144.8,24.03h4.71v-2.05
		h-4.71V19.2h8.59v-2.06h-10.65v12.1h10.88v-2.05h-8.83V24.03z M163.88,21.97c-3.48,0-3.9-0.37-3.9-1.54c0-1.03,1.14-1.61,3.39-1.61
		c2.66,0,4,0.84,5,1.4l0.96-1.84c-0.82-0.42-3.04-1.61-5.98-1.61c-4.06,0-5.58,1.87-5.58,3.9c0,2.52,1.92,3.31,4.67,3.36
		c4.54,0.12,5.33,0.16,5.33,1.71c0,1.35-1.52,1.82-3.69,1.82c-3.41,0-4.76-0.96-6.17-1.8l-0.98,1.8c0.8,0.56,2.97,2.05,7.1,2.05
		c2.71,0,5.96-0.61,5.96-4.09C169.98,23.63,169.34,21.97,163.88,21.97z M191.89,11.35c-5.4,0-9.41,4.21-9.41,9.13
		s4.04,9.13,9.41,9.13c5.37,0,9.41-4.21,9.41-9.13S197.26,11.35,191.89,11.35z M191.89,27.56c-4.21,0-7.36-3.2-7.36-7.08
		c0-3.88,3.16-7.07,7.36-7.07c4.2,0,7.36,3.2,7.36,7.07C199.25,24.36,196.1,27.56,191.89,27.56z M218.8,20.62
		c0-2.66-2.17-3.48-4.6-3.48h-7.47v12.1h2.05v-4.95h4.25l3.48,4.95h2.57l-3.53-4.99C216.98,24.01,218.8,23.31,218.8,20.62z
		 M208.78,22.23V19.2h5.51c1.56,0,2.45,0.12,2.45,1.47c0,1.19-0.98,1.56-2.34,1.56H208.78z M228.76,21.97c-3.48,0-3.9-0.37-3.9-1.54
		c0-1.03,1.14-1.61,3.39-1.61c2.66,0,3.99,0.84,5,1.4l0.96-1.84c-0.82-0.42-3.04-1.61-5.98-1.61c-4.06,0-5.58,1.87-5.58,3.9
		c0,2.52,1.92,3.31,4.67,3.36c4.53,0.12,5.32,0.16,5.32,1.71c0,1.35-1.52,1.82-3.69,1.82c-3.41,0-4.76-0.96-6.17-1.8l-0.98,1.8
		c0.79,0.56,2.96,2.05,7.1,2.05c2.71,0,5.96-0.61,5.96-4.09C234.85,23.63,234.22,21.97,228.76,21.97z"/>
</g>
</svg>
