<?xml version="1.0" encoding="UTF-8"?><svg id="Layer_1" xmlns="http://www.w3.org/2000/svg" viewBox="0 0 300 300"><defs><style>.cls-1{fill:#fff;stroke-width:0px;}</style></defs><path class="cls-1" d="M150,15.54C75.86,15.54,15.54,75.86,15.54,150s60.32,134.46,134.46,134.46,134.46-60.32,134.46-134.46S224.14,15.54,150,15.54ZM150,260.5c-60.89,0-110.5-49.61-110.5-110.5s49.61-110.5,110.5-110.5,110.5,49.61,110.5,110.5-49.61,110.5-110.5,110.5ZM125.48,96.72c-3.1-1.69-7.05.56-7.05,3.95l-.28,98.38c0,3.66,3.95,5.92,7.05,4.23l85.41-49.05c3.1-1.69,3.1-6.2,0-8.17l-85.13-49.33Z"/></svg>