<?xml version="1.0" encoding="UTF-8"?><svg id="Layer_2" xmlns="http://www.w3.org/2000/svg" viewBox="0 0 65.86 65.84"><g id="objkt"><path d="m29.14,57.76c-7.44,0-14.9-2.85-20.59-8.54C3.07,43.75.03,36.48,0,28.76c-.03-7.72,2.94-14.96,8.38-20.4,11.22-11.22,29.55-11.14,40.86.17,5.48,5.48,8.51,12.75,8.55,20.46.03,7.72-2.94,14.96-8.38,20.4-5.58,5.58-12.92,8.36-20.28,8.36Zm-.48-55.56c-6.8,0-13.57,2.57-18.72,7.72-5.02,5.02-7.77,11.71-7.73,18.84.03,7.13,2.84,13.85,7.9,18.92,10.45,10.45,27.4,10.53,37.76.17,5.02-5.02,7.77-11.71,7.74-18.84-.03-7.13-2.84-13.85-7.9-18.92-5.26-5.26-12.16-7.89-19.04-7.89Z"/><path d="m64.76,65.84c-.28,0-.56-.11-.78-.32l-16.12-16.12c-.43-.43-.43-1.12,0-1.55s1.12-.43,1.55,0l16.12,16.12c.43.43.43,1.12,0,1.55-.21.21-.5.32-.78.32Z"/></g></svg>